<?xml version="1.0" encoding="utf-8"?>
<!-- Generator: Adobe Illustrator 28.0.0, SVG Export Plug-In . SVG Version: 6.00 Build 0)  -->
<svg version="1.1" id="Lager_1" xmlns="http://www.w3.org/2000/svg" xmlns:xlink="http://www.w3.org/1999/xlink" x="0px" y="0px"
	 viewBox="0 0 24 24" style="enable-background:new 0 0 24 24;" xml:space="preserve">
<path d="M18.1,14.3c-1.7,0-3,1.4-3,3c0,1.7,1.4,3,3,3c1.7,0,3-1.4,3-3C21.2,15.6,19.8,14.3,18.1,14.3z M18.1,18.8
	c-0.8,0-1.5-0.7-1.5-1.5s0.7-1.5,1.5-1.5s1.5,0.7,1.5,1.5S19,18.8,18.1,18.8z"/>
<path d="M7.8,14.3c-1.7,0-3,1.4-3,3c0,1.7,1.4,3,3,3s3-1.4,3-3C10.8,15.6,9.5,14.3,7.8,14.3z M7.8,18.8c-0.8,0-1.5-0.7-1.5-1.5
	s0.7-1.5,1.5-1.5c0.8,0,1.5,0.7,1.5,1.5S8.6,18.8,7.8,18.8z"/>
<path d="M20.2,5.6c-0.1-0.3-0.4-0.4-0.7-0.4h-4v1.5H19l2.1,4.1l1.4-0.7L20.2,5.6z"/>
<path d="M15.9,16.6h-5.7v1.5h5.7V16.6z"/>
<path d="M5.5,16.6H2.9c-0.4,0-0.8,0.3-0.8,0.8c0,0.4,0.3,0.8,0.8,0.8h2.6c0.4,0,0.8-0.3,0.8-0.8S5.9,16.6,5.5,16.6z"/>
<path d="M23.8,11.9L22.4,10c-0.1-0.2-0.4-0.3-0.6-0.3h-5.5V4.4c0-0.4-0.3-0.8-0.8-0.8H2.9C2.5,3.7,2.1,4,2.1,4.4
	c0,0.4,0.3,0.8,0.8,0.8h11.8v5.3c0,0.4,0.3,0.8,0.8,0.8h5.9l1.1,1.4v3.9h-2.1c-0.4,0-0.8,0.3-0.8,0.8c0,0.4,0.3,0.8,0.8,0.8h2.8
	c0.4,0,0.8-0.3,0.8-0.8v-4.9C24,12.2,23.9,12.1,23.8,11.9z"/>
<path d="M5.5,12.7H2c-0.4,0-0.8,0.3-0.8,0.8c0,0.4,0.3,0.8,0.8,0.8h3.5c0.4,0,0.8-0.3,0.8-0.8C6.2,13.1,5.9,12.7,5.5,12.7z"/>
<path d="M7.2,9.8H0.8C0.3,9.8,0,10.1,0,10.5c0,0.4,0.3,0.8,0.8,0.8h6.5c0.4,0,0.8-0.3,0.8-0.8S7.6,9.8,7.2,9.8z"/>
<path d="M8.4,6.8H2c-0.4,0-0.8,0.3-0.8,0.8C1.2,8,1.6,8.3,2,8.3h6.5c0.4,0,0.8-0.3,0.8-0.8C9.2,7.1,8.9,6.8,8.4,6.8z"/>
</svg>
