<svg width="18" height="18" viewBox="0 0 18 18" fill="none" xmlns="http://www.w3.org/2000/svg">
<path fill-rule="evenodd" clip-rule="evenodd" d="M16.5 9C16.5 13.1421 13.1421 16.5 9 16.5C4.85786 16.5 1.5 13.1421 1.5 9C1.5 4.85786 4.85786 1.5 9 1.5C13.1421 1.5 16.5 4.85786 16.5 9ZM18 9C18 13.9706 13.9706 18 9 18C4.02944 18 0 13.9706 0 9C0 4.02944 4.02944 0 9 0C13.9706 0 18 4.02944 18 9ZM8.53125 11.0015H9.85791C9.84945 10.5106 9.88118 10.1699 9.95312 9.97949C10.0293 9.78906 10.2218 9.53727 10.5308 9.22412C11.1317 8.61898 11.5231 8.1429 11.7051 7.7959C11.887 7.44466 11.978 7.07438 11.978 6.68506C11.978 5.91911 11.7178 5.28011 11.1973 4.76807C10.6768 4.25602 10.0251 4 9.24219 4C8.472 4 7.83089 4.25602 7.31885 4.76807C6.81104 5.27588 6.53809 5.92757 6.5 6.72314L7.83936 6.92627C8.02132 5.88102 8.50374 5.3584 9.28662 5.3584C9.65055 5.3584 9.95101 5.47689 10.188 5.71387C10.4292 5.95085 10.5498 6.25342 10.5498 6.62158C10.5498 6.84587 10.5033 7.04264 10.4102 7.21191C10.3171 7.38118 10.0399 7.69434 9.57861 8.15137C9.1639 8.55762 8.8846 8.93001 8.74072 9.26855C8.59684 9.6071 8.5249 10.0493 8.5249 10.5952L8.53125 11.0015ZM8.53125 11.6172V13.4009H9.99756V11.6172H8.53125Z" fill="black"/>
</svg>
