<?xml version="1.0" standalone="no"?>
<!DOCTYPE svg PUBLIC "-//W3C//DTD SVG 20010904//EN"
 "http://www.w3.org/TR/2001/REC-SVG-20010904/DTD/svg10.dtd">
<svg version="1.0" xmlns="http://www.w3.org/2000/svg"
 width="300.000000pt" height="300.000000pt" viewBox="0 0 300.000000 300.000000"
 preserveAspectRatio="xMidYMid meet">
<metadata>
Created by potrace 1.11, written by Peter Selinger 2001-2013
</metadata>
<g transform="translate(0.000000,300.000000) scale(0.100000,-0.100000)"
fill="#000000" stroke="none">
<path d="M0 1500 l0 -1500 1500 0 1500 0 0 1500 0 1500 -1500 0 -1500 0 0
-1500z m1741 1087 c194 -51 361 -142 501 -276 42 -39 78 -71 81 -71 2 0 17 29
32 65 36 84 43 78 11 -8 -28 -76 -31 -71 67 -112 86 -36 81 -44 -8 -10 -37 14
-69 25 -71 25 -2 0 17 -30 42 -67 25 -36 60 -96 78 -132 35 -69 86 -209 86
-234 0 -11 -58 -29 -222 -70 -123 -30 -224 -54 -225 -53 -1 1 1 24 5 51 l7 50
154 37 c84 20 155 39 158 42 7 7 -100 223 -127 256 -17 21 -21 23 -31 10 -8
-12 -9 -10 -4 8 15 53 -183 229 -350 312 -546 272 -1208 9 -1416 -561 -16 -45
-37 -114 -45 -153 -16 -73 -24 -288 -12 -317 6 -15 15 -14 100 6 l93 22 41
288 c38 259 44 290 66 311 18 18 60 31 182 58 88 20 161 35 162 33 2 -1 -10
-104 -25 -227 -19 -151 -25 -229 -18 -237 23 -30 33 -10 45 95 7 59 15 123 19
144 l5 36 112 28 c61 16 122 28 135 27 46 -2 49 -20 29 -175 -10 -79 -19 -149
-20 -157 -3 -13 -107 -45 -116 -36 -2 2 4 60 13 130 10 69 15 128 13 130 -2 2
-17 1 -34 -3 -29 -8 -29 -9 -42 -123 -17 -147 -19 -159 -37 -159 -25 0 -17
-16 23 -44 44 -30 52 -32 52 -11 0 8 12 17 28 21 15 3 40 10 56 15 16 5 31 8
32 6 2 -2 -6 -61 -17 -131 -11 -71 -18 -130 -16 -133 3 -2 23 27 45 65 l40 68
69 16 c37 9 69 15 70 14 1 -1 -30 -51 -70 -110 l-72 -109 43 -38 c24 -20 94
-81 157 -134 l115 -97 456 107 c251 58 458 104 460 102 3 -2 -1 -25 -8 -51
-12 -46 -12 -46 -70 -58 l-58 -12 -41 -76 c-116 -213 -273 -372 -477 -477
-304 -159 -648 -175 -955 -47 -45 19 -62 22 -80 14 -18 -9 -19 -8 -5 2 14 10
7 18 -57 58 -41 25 -92 58 -114 73 -39 28 -39 28 -94 14 l-55 -15 -41 42 -41
42 487 117 c269 65 495 117 503 117 8 -1 33 -16 55 -35 29 -25 36 -35 25 -39
-8 -3 -177 -44 -375 -92 -198 -48 -362 -89 -364 -91 -3 -2 4 -10 15 -17 31
-23 174 -98 174 -91 0 3 -7 20 -16 36 -8 17 -13 33 -10 36 2 3 14 -13 26 -36
11 -23 23 -41 25 -41 3 0 33 14 66 31 34 17 63 28 66 25 3 -2 -24 -19 -58 -37
l-64 -32 38 -13 c131 -46 342 -63 485 -39 277 46 535 209 686 434 61 92 66
106 35 98 -215 -57 -641 -149 -662 -143 -15 3 -102 72 -194 151 -92 80 -171
141 -175 137 -5 -5 -11 -32 -15 -61 -7 -58 -7 -59 -74 -76 -40 -11 -49 -11
-49 0 0 7 14 106 30 220 17 114 30 215 30 224 0 24 -99 87 -132 83 -19 -2 -27
2 -30 15 -2 12 -13 2 -37 -35 -18 -29 -36 -50 -39 -47 -3 3 0 11 6 17 23 23
12 26 -40 12 -29 -7 -54 -12 -55 -10 -2 2 1 45 7 96 6 51 8 95 6 97 -2 3 -30
-1 -61 -8 -41 -9 -60 -19 -66 -33 -4 -12 -18 -86 -30 -166 -11 -80 -23 -147
-25 -149 -2 -2 -85 -24 -185 -48 -138 -34 -184 -42 -190 -32 -16 26 -31 214
-25 302 22 292 136 538 343 741 159 155 359 258 583 301 118 22 350 14 471
-18z m52 -364 c-3 -27 -17 -154 -32 -283 l-27 -235 -114 -27 c-196 -47 -190
-52 -166 134 10 79 22 151 27 160 13 24 43 39 119 57 l65 16 15 105 c15 104
15 105 45 111 70 15 73 14 68 -38z m309 -341 c-16 -128 -34 -238 -40 -244 -6
-6 -157 -46 -336 -88 l-326 -77 1 26 c3 77 -11 70 289 141 258 61 275 67 278
89 4 22 2 23 -40 15 -71 -13 -110 -11 -121 8 -15 24 19 308 39 324 14 11 93
28 100 21 3 -3 -20 -180 -31 -240 -5 -28 -4 -28 28 -22 17 4 35 10 39 14 3 3
14 64 23 136 9 71 18 131 20 133 2 2 25 9 52 16 42 11 48 11 51 -3 1 -9 -11
-121 -26 -249z m483 -391 l0 -198 30 8 c59 17 63 14 52 -36 -9 -40 -14 -46
-46 -55 -149 -39 -372 -92 -375 -89 -2 2 -2 25 1 50 l5 46 107 24 106 25 13
59 c8 40 11 111 9 211 l-4 152 41 9 c23 5 45 6 51 1 6 -6 10 -88 10 -207z
m-330 97 c-3 -18 -16 -127 -30 -243 -17 -136 -31 -215 -40 -224 -12 -13 -391
-111 -425 -110 -15 0 -97 66 -89 72 4 3 54 15 326 77 59 14 94 27 97 37 10 24
2 26 -57 13 -59 -14 -102 -8 -110 13 -3 8 3 79 14 158 10 79 18 149 19 155 0
11 99 38 108 30 2 -3 -4 -61 -14 -130 -9 -70 -15 -129 -12 -132 3 -3 21 -1 39
4 l34 8 15 137 c9 75 18 138 20 141 7 6 72 24 93 25 15 1 17 -5 12 -31z m-361
-79 c9 -8 -16 -269 -30 -320 -5 -17 -225 -73 -266 -67 -22 3 -23 7 -21 78 3
120 0 115 108 141 85 21 95 25 95 45 0 13 -4 26 -10 29 -8 5 -80 -10 -152 -31
-27 -8 -23 39 5 70 17 20 46 31 122 50 96 23 129 24 149 5z m-727 -21 c16 -20
-64 -598 -86 -620 -10 -11 -116 -44 -281 -87 l-265 -69 -37 36 c-21 20 -38 39
-38 43 0 4 17 10 38 14 66 11 68 16 23 85 -68 105 -149 296 -133 312 4 4 27 8
50 10 43 3 44 3 59 -42 25 -75 89 -202 133 -263 38 -52 45 -58 69 -52 14 4 27
8 29 9 1 2 18 119 37 261 22 159 41 267 50 281 8 13 32 28 52 33 21 5 56 14
78 20 22 6 43 11 47 12 4 0 29 7 55 14 62 17 108 18 120 3z m301 -490 c23 -18
41 -35 41 -38 1 -3 -72 -22 -161 -43 -90 -21 -173 -40 -185 -43 -20 -6 -21 -3
-16 38 3 23 9 47 14 52 7 8 217 63 250 65 9 1 35 -14 57 -31z"/>
<path d="M890 1968 c-25 -6 -47 -12 -49 -14 -6 -6 -29 -178 -24 -183 5 -6 105
20 119 30 6 5 15 41 18 80 4 39 10 77 13 85 6 16 -11 17 -77 2z"/>
<path d="M1040 1602 c0 -11 -3 -28 -7 -38 -8 -23 13 -10 27 16 7 13 6 21 -5
30 -12 10 -15 9 -15 -8z"/>
<path d="M1620 1943 c-40 -8 -48 -20 -55 -86 -3 -34 -9 -70 -11 -79 -4 -15 1
-18 31 -18 28 0 37 5 44 23 8 22 25 168 19 166 -2 -1 -14 -4 -28 -6z"/>
<path d="M1712 1283 c-26 -5 -49 -40 -34 -55 5 -5 22 -6 43 -1 24 7 35 16 40
36 8 29 4 30 -49 20z"/>
<path d="M970 1363 c-30 -8 -57 -17 -59 -19 -6 -6 -59 -437 -55 -446 4 -7 115
20 126 30 4 4 19 93 33 197 14 105 28 205 32 223 6 37 4 37 -77 15z"/>
</g>
</svg>
